[Header]
FileType HTR
DataType HTRS
FileVersion 1
NumSegments 64
NumFrames 3
DataFrameRate 24
EulerRotationOrder ZYX
CalibrationUnits mm
RotationUnits Degrees
GlobalAxisofGravity Y
BoneLengthAxis Y
ScaleFactor 1.0
[SegmentNames&Hierarchy]
Hips	GLOBAL
Spine	Hips
Spine1	Spine
Spine2	Spine1
Neck	Spine2
Head	Neck
LeftEye	Head
RightEye	Head
LeftShoulder	Spine2
LeftArm	LeftShoulder
LeftForeArm	LeftArm
LeftHand	LeftForeArm
LeftHandThumb1	LeftHand
LeftHandThumb2	LeftHandThumb1
LeftHandThumb3	LeftHandThumb2
LeftHandThumb4	LeftHandThumb3
LeftHandIndex1	LeftHand
LeftHandIndex2	LeftHandIndex1
LeftHandIndex3	LeftHandIndex2
LeftHandIndex4	LeftHandIndex3
LeftHandMiddle1	LeftHand
LeftHandMiddle2	LeftHandMiddle1
LeftHandMiddle3	LeftHandMiddle2
LeftHandMiddle4	LeftHandMiddle3
LeftHandRing1	LeftHand
LeftHandRing2	LeftHandRing1
LeftHandRing3	LeftHandRing2
LeftHandRing4	LeftHandRing3
LeftHandPinky1	LeftHand
LeftHandPinky2	LeftHandPinky1
LeftHandPinky3	LeftHandPinky2
LeftHandPinky4	LeftHandPinky3
RightShoulder	Spine2
RightArm	RightShoulder
RightForeArm	RightArm
RightHand	RightForeArm
RightHandPinky1	RightHand
RightHandPinky2	RightHandPinky1
RightHandPinky3	RightHandPinky2
RightHandPinky4	RightHandPinky3
RightHandRing1	RightHand
RightHandRing2	RightHandRing1
RightHandRing3	RightHandRing2
RightHandRing4	RightHandRing3
RightHandMiddle1	RightHand
RightHandMiddle2	RightHandMiddle1
RightHandMiddle3	RightHandMiddle2
RightHandMiddle4	RightHandMiddle3
RightHandIndex1	RightHand
RightHandIndex2	RightHandIndex1
RightHandIndex3	RightHandIndex2
RightHandIndex4	RightHandIndex3
RightHandThumb1	RightHand
RightHandThumb2	RightHandThumb1
RightHandThumb3	RightHandThumb2
RightHandThumb4	RightHandThumb3
LeftUpLeg	Hips
LeftLeg	LeftUpLeg
LeftFoot	LeftLeg
LeftToeBase	LeftFoot
RightUpLeg	Hips
RightLeg	RightUpLeg
RightFoot	RightLeg
RightToeBase	RightFoot
[BasePosition]
Hips	0	0	0	0	0	0	1
Spine	0	0	0	0	0	0	1
Spine1	0	0	0	0	0	0	1
Spine2	0	0	0	0	0	0	1
Neck	0	0	0	0	0	0	1
Head	0	0	0	0	0	0	1
LeftEye	0	0	0	0	0	0	1
RightEye	0	0	0	0	0	0	1
LeftShoulder	0	0	0	0	0	0	1
LeftArm	0	0	0	0	0	0	1
LeftForeArm	0	0	0	0	0	0	1
LeftHand	0	0	0	0	0	0	1
LeftHandThumb1	0	0	0	0	0	0	1
LeftHandThumb2	0	0	0	0	0	0	1
LeftHandThumb3	0	0	0	0	0	0	1
LeftHandThumb4	0	0	0	0	0	0	1
LeftHandIndex1	0	0	0	0	0	0	1
LeftHandIndex2	0	0	0	0	0	0	1
LeftHandIndex3	0	0	0	0	0	0	1
LeftHandIndex4	0	0	0	0	0	0	1
LeftHandMiddle1	0	0	0	0	0	0	1
LeftHandMiddle2	0	0	0	0	0	0	1
LeftHandMiddle3	0	0	0	0	0	0	1
LeftHandMiddle4	0	0	0	0	0	0	1
LeftHandRing1	0	0	0	0	0	0	1
LeftHandRing2	0	0	0	0	0	0	1
LeftHandRing3	0	0	0	0	0	0	1
LeftHandRing4	0	0	0	0	0	0	1
LeftHandPinky1	0	0	0	0	0	0	1
LeftHandPinky2	0	0	0	0	0	0	1
LeftHandPinky3	0	0	0	0	0	0	1
LeftHandPinky4	0	0	0	0	0	0	1
RightShoulder	0	0	0	0	0	0	1
RightArm	0	0	0	0	0	0	1
RightForeArm	0	0	0	0	0	0	1
RightHand	0	0	0	0	0	0	1
RightHandPinky1	0	0	0	0	0	0	1
RightHandPinky2	0	0	0	0	0	0	1
RightHandPinky3	0	0	0	0	0	0	1
RightHandPinky4	0	0	0	0	0	0	1
RightHandRing1	0	0	0	0	0	0	1
RightHandRing2	0	0	0	0	0	0	1
RightHandRing3	0	0	0	0	0	0	1
RightHandRing4	0	0	0	0	0	0	1
RightHandMiddle1	0	0	0	0	0	0	1
RightHandMiddle2	0	0	0	0	0	0	1
RightHandMiddle3	0	0	0	0	0	0	1
RightHandMiddle4	0	0	0	0	0	0	1
RightHandIndex1	0	0	0	0	0	0	1
RightHandIndex2	0	0	0	0	0	0	1
RightHandIndex3	0	0	0	0	0	0	1
RightHandIndex4	0	0	0	0	0	0	1
RightHandThumb1	0	0	0	0	0	0	1
RightHandThumb2	0	0	0	0	0	0	1
RightHandThumb3	0	0	0	0	0	0	1
RightHandThumb4	0	0	0	0	0	0	1
LeftUpLeg	0	0	0	0	0	0	1
LeftLeg	0	0	0	0	0	0	1
LeftFoot	0	0	0	0	0	0	1
LeftToeBase	0	0	0	0	0	0	1
RightUpLeg	0	0	0	0	0	0	1
RightLeg	0	0	0	0	0	0	1
RightFoot	0	0	0	0	0	0	1
RightToeBase	0	0	0	0	0	0	1
[Hips]
24	46.18688965	1016.896973	-82.84580994	-20.56167412	74.61122894	-20.33904839	1.0
25	42.2261734	1016.810791	-64.91625214	-25.87302017	77.56075287	-25.50295448	1.0
26	36.69625854	1016.718262	-46.87041473	-34.26102066	80.3469696	-33.7420578	1.0
[Spine]
24	0	101.8159943	1.315000057	1.35953629	-3.596316814	3.03545022	1.0
25	0	101.8159943	1.315000057	1.406378031	-3.282305241	2.952538013	1.0
26	0	101.8159943	1.315000057	1.400379062	-2.832337856	2.918313503	1.0
[Spine1]
24	0	100.8349991	-10.00800037	0.4818435013	-2.587477207	6.204266071	1.0
25	0	100.8349991	-10.00800037	0.5410147905	-2.110451937	6.290381432	1.0
26	0	100.8349991	-10.00800037	0.6032652259	-1.552209377	6.256882191	1.0
[Spine2]
24	0	91	-13.73399925	0.2918584943	-2.036417246	6.163499355	1.0
25	0	91	-13.73399925	0.3930749297	-1.564110041	6.241071701	1.0
26	0	91	-13.73399925	0.5018049479	-1.013119817	6.197794914	1.0
[Neck]
24	0	166.7169952	-25.16200066	2.677920341	4.902397633	-1.6372751	1.0
25	0	166.7169952	-25.16200066	2.345980644	3.812939405	-1.65964365	1.0
26	0	166.7169952	-25.16200066	2.010730028	2.752483606	-1.737792969	1.0
[Head]
24	0	96.17900085	16.84999847	0.4703019559	13.78735924	-11.16999912	1.0
25	0	96.17900085	16.84999847	1.034291029	10.6534729	-10.17084408	1.0
26	0	96.17900085	16.84999847	1.320702076	7.885951996	-9.449666023	1.0
[LeftEye]
24	30.6760006	64.09500122	92.83599854	0	0	0	1.0
25	30.6760006	64.09500122	92.83599854	0	0	0	1.0
26	30.6760006	64.09500122	92.83599854	0	0	0	1.0
[RightEye]
24	-30.6760006	64.09500122	92.83499908	0	0	0	1.0
25	-30.6760006	64.09500122	92.83499908	0	0	0	1.0
26	-30.6760006	64.09500122	92.83499908	0	0	0	1.0
[LeftShoulder]
24	45.70400238	109.4599991	-26.28000069	4.483795643	-13.77847767	-4.213480473	1.0
25	45.70400238	109.4599991	-26.28000069	4.56840992	-13.83227634	-4.61262846	1.0
26	45.70400238	109.4599991	-26.28000069	4.645440102	-13.83038235	-4.970793724	1.0
[LeftArm]
24	105.923996	-5.24600029	-22.32099915	-0.288636297	4.775908947	-83.80732727	1.0
25	105.923996	-5.24600029	-22.32099915	-0.6038292646	4.161347389	-83.9879303	1.0
26	105.923996	-5.24600029	-22.32099915	-1.132839441	3.993017912	-84.11634827	1.0
[LeftForeArm]
24	278.414978	-0.0009999999311	0	3.509155249e-06	-12.2992239	-0.0002136729454	1.0
25	278.414978	-0.0009999999311	0	-4.182382327e-06	-13.82441902	-0.0002017222432	1.0
26	278.414978	-0.0009999999311	0	-6.239709478e-07	-14.41869354	-0.0001815932774	1.0
[LeftHand]
24	283.2879944	0	0	-29.7172718	4.004357338	-8.045025826	1.0
25	283.2879944	0	0	-29.9251194	3.468069315	-8.043811798	1.0
26	283.2879944	0	0	-29.59451675	2.505310059	-8.519340515	1.0
[LeftHandThumb1]
24	24.6609993	-15.75	26.8239994	18.88274765	-2.425426722	10.20116234	1.0
25	24.6609993	-15.75	26.8239994	19.10422707	-2.190449953	10.1022253	1.0
26	24.6609993	-15.75	26.8239994	19.03535652	-2.258749723	10.09485912	1.0
[LeftHandThumb2]
24	32.29800034	-18.64699936	18.64699936	-0.4166276753	31.98166084	-2.855787277	1.0
25	32.29800034	-18.64699936	18.64699936	-0.4024027586	31.80825424	-2.82692647	1.0
26	32.29800034	-18.64699936	18.64699936	-0.4064375162	31.84873772	-2.83743906	1.0
[LeftHandThumb3]
24	26.52600098	-15.31499958	15.31499958	2.085164785	9.133402824	-0.09360733628	1.0
25	26.52600098	-15.31499958	15.31499958	2.085229874	9.101226807	-0.171999082	1.0
26	26.52600098	-15.31499958	15.31499958	2.084639072	9.096764565	-0.152470693	1.0
[LeftHandThumb4]
24	19.54599953	-11.28499985	11.28499985	0	0	0	1.0
25	19.54599953	-11.28499985	11.28499985	0	0	0	1.0
26	19.54599953	-11.28499985	11.28499985	0	0	0	1.0
[LeftHandIndex1]
24	91.09299469	-5.170999527	22.60099792	-0.1309562773	4.453690052	-5.990168571	1.0
25	91.09299469	-5.170999527	22.60099792	-0.1349688917	4.416893005	-5.88492918	1.0
26	91.09299469	-5.170999527	22.60099792	-0.1439726651	4.433146477	-6.000881195	1.0
[LeftHandIndex2]
24	36.76399994	0	0	-0.6336038709	2.780341387	-20.6837635	1.0
25	36.76399994	0	0	-0.6347541213	2.782470942	-20.70757675	1.0
26	36.76399994	0	0	-0.6341881156	2.781419754	-20.69581413	1.0
[LeftHandIndex3]
24	28.83100128	0	0	-0.1117117554	0.8164660335	-10.28110504	1.0
25	28.83100128	0	0	-0.1121352911	0.8188310862	-10.30486202	1.0
26	28.83100128	0	0	-0.1119272411	0.8176588416	-10.29313183	1.0
[LeftHandIndex4]
24	23.92700005	0	0	0	0	0	1.0
25	23.92700005	0	0	0	0	0	1.0
26	23.92700005	0	0	0	0	0	1.0
[LeftHandMiddle1]
24	95.33399963	0	0	-1.362496138	8.418721199	-14.56215286	1.0
25	95.33399963	0	0	-1.354670048	8.407051086	-14.49681187	1.0
26	95.33399963	0	0	-1.36688602	8.457775116	-14.59622574	1.0
[LeftHandMiddle2]
24	36.98199844	0	0	-1.421129823	3.817168951	-33.33385468	1.0
25	36.98199844	0	0	-1.423078895	3.819276571	-33.36222458	1.0
26	36.98199844	0	0	-1.424170613	3.820445299	-33.37799454	1.0
[LeftHandMiddle3]
24	29.50900078	0	0	-0.1470511407	1.477328181	-12.17899036	1.0
25	29.50900078	0	0	-0.1477017254	1.480047464	-12.20707607	1.0
26	29.50900078	0	0	-0.1480711401	1.481651306	-12.22344303	1.0
[LeftHandMiddle4]
24	28.3390007	0	0	0	0	0	1.0
25	28.3390007	0	0	0	0	0	1.0
26	28.3390007	0	0	0	0	0	1.0
[LeftHandRing1]
24	91.04499817	-0.4390000105	-18.65100098	-2.869822741	11.53769684	-25.77806091	1.0
25	91.04499817	-0.4390000105	-18.65100098	-2.867368937	11.54302979	-25.75717926	1.0
26	91.04499817	-0.4390000105	-18.65100098	-2.880826235	11.55123806	-25.85844994	1.0
[LeftHandRing2]
24	31.54000092	0	0	-1.198339462	4.056572437	-40.21546555	1.0
25	31.54000092	0	0	-1.200933933	4.059903622	-40.25796509	1.0
26	31.54000092	0	0	-1.200861096	4.059820175	-40.25688934	1.0
[LeftHandRing3]
24	29.37700081	0	0	-0.09260693192	1.904889345	-19.35332108	1.0
25	29.37700081	0	0	-0.09360467643	1.908973455	-19.39578247	1.0
26	29.37700081	0	0	-0.09357696027	1.90888381	-19.39466858	1.0
[LeftHandRing4]
24	26.47500038	0	0	0	0	0	1.0
25	26.47500038	0	0	0	0	0	1.0
26	26.47500038	0	0	0	0	0	1.0
[LeftHandPinky1]
24	80.77799988	-4.887000084	-38.06099701	-5.047021866	15.93213654	-35.78997421	1.0
25	80.77799988	-4.887000084	-38.06099701	-5.040529251	15.94087124	-35.72748184	1.0
26	80.77799988	-4.887000084	-38.06099701	-5.057124615	15.97629166	-35.81584549	1.0
[LeftHandPinky2]
24	36	0	0	-1.954648852	3.825390816	-45.78345108	1.0
25	36	0	0	-1.960454822	3.830439091	-45.86060715	1.0
26	36	0	0	-1.960825324	3.830757856	-45.86557388	1.0
[LeftHandPinky3]
24	21.14200211	0	0	-0.5485240221	2.844602585	-20.64727211	1.0
25	21.14200211	0	0	-0.5518557429	2.851555586	-20.72417641	1.0
26	21.14200211	0	0	-0.5520707965	2.851990223	-20.72913933	1.0
[LeftHandPinky4]
24	19.75699997	0	0	0	0	0	1.0
25	19.75699997	0	0	0	0	0	1.0
26	19.75699997	0	0	0	0	0	1.0
[RightShoulder]
24	-45.70000076	109.4620056	-26.28000069	4.873548031	1.900182366	6.73674202	1.0
25	-45.70000076	109.4620056	-26.28000069	4.862858295	2.040137053	6.525177002	1.0
26	-45.70000076	109.4620056	-26.28000069	4.851207733	2.217941761	6.333823204	1.0
[RightArm]
24	-105.9280014	-5.248000145	-22.32099915	0.8666761518	2.823674679	65.89375305	1.0
25	-105.9280014	-5.248000145	-22.32099915	0.612634778	2.917258024	66.06682587	1.0
26	-105.9280014	-5.248000145	-22.32099915	0.3456063569	2.68413949	66.31533813	1.0
[RightForeArm]
24	-278.414978	0	0	8.834670666e-07	19.08117104	5.295051324e-06	1.0
25	-278.414978	0	0	-1.031864122e-05	18.70940208	-7.837015801e-06	1.0
26	-278.414978	0	0	4.784920293e-06	18.40210533	4.600571629e-06	1.0
[RightHand]
24	-283.2879944	0	0.0009999999311	-13.27421379	-5.307345867	12.07693481	1.0
25	-283.2879944	0	0.0009999999311	-12.87527847	-5.420059204	11.86551094	1.0
26	-283.2879944	0	0.0009999999311	-12.76715374	-5.663444996	11.69473934	1.0
[RightHandPinky1]
24	-80.76699829	-4.885000229	-38.06000137	-5.221214771	-16.05854416	36.93915176	1.0
25	-80.76699829	-4.885000229	-38.06000137	-5.225169659	-16.06129837	36.96518326	1.0
26	-80.76699829	-4.885000229	-38.06000137	-5.225491524	-16.0681839	36.96292877	1.0
[RightHandPinky2]
24	-36	0	0.0009999999311	-1.940052748	-3.812190294	45.60764313	1.0
25	-36	0	0.0009999999311	-1.943636775	-3.815338612	45.65535736	1.0
26	-36	0	0.0009999999311	-1.944679856	-3.816243649	45.66944885	1.0
[RightHandPinky3]
24	-21.14200211	0	0	-0.7629152536	0.05971417204	22.06877136	1.0
25	-21.14200211	0	0	-0.7650787234	0.05548299849	22.11624527	1.0
26	-21.14200211	0	0	-0.7657191157	0.05420802534	22.13026428	1.0
[RightHandPinky4]
24	-19.75699997	0	0	0	0	0	1.0
25	-19.75699997	0	0	0	0	0	1.0
26	-19.75699997	0	0	0	0	0	1.0
[RightHandRing1]
24	-91.03599548	-0.4390000105	-18.65100098	-3.024488449	-11.52298737	26.97815895	1.0
25	-91.03599548	-0.4390000105	-18.65100098	-3.03182435	-11.51885128	27.03608704	1.0
26	-91.03599548	-0.4390000105	-18.65100098	-3.031162977	-11.52342415	27.02923012	1.0
[RightHandRing2]
24	-31.54000092	0	0	-1.189145446	-4.044583321	40.06792068	1.0
25	-31.54000092	0	0	-1.193412185	-4.050051212	40.13783646	1.0
26	-31.54000092	0	0	-1.195426464	-4.052619457	40.17084503	1.0
[RightHandRing3]
24	-29.37700081	0	0	-0.135511592	0.1030907407	17.68111992	1.0
25	-29.37700081	0	0	-0.1369550377	0.09635038674	17.75050926	1.0
26	-29.37700081	0	0	-0.1376426369	0.09314649552	17.78353691	1.0
[RightHandRing4]
24	-26.47500038	0	0	0	0	0	1.0
25	-26.47500038	0	0	0	0	0	1.0
26	-26.47500038	0	0	0	0	0	1.0
[RightHandMiddle1]
24	-95.32500458	0	0	-1.529213309	-8.676142693	15.94394302	1.0
25	-95.32500458	0	0	-1.536871314	-8.68320179	16.00726128	1.0
26	-95.32500458	0	0	-1.536948562	-8.678756714	16.00834656	1.0
[RightHandMiddle2]
24	-36.98199844	0	0	-1.419159412	-3.814735413	33.30705643	1.0
25	-36.98199844	0	0	-1.423831224	-3.819797516	33.37509155	1.0
26	-36.98199844	0	0	-1.42560339	-3.82171011	33.40100861	1.0
[RightHandMiddle3]
24	-29.50900078	0	0	-0.2502462268	-1.667736173	15.78882599	1.0
25	-29.50900078	0	0	-0.2522110939	-1.674190402	15.85668468	1.0
26	-29.50900078	0	0	-0.2529619932	-1.676643729	15.88238239	1.0
[RightHandMiddle4]
24	-28.3390007	0	0.0009999999311	0	0	0	1.0
25	-28.3390007	0	0.0009999999311	0	0	0	1.0
26	-28.3390007	0	0.0009999999311	0	0	0	1.0
[RightHandIndex1]
24	-91.08300018	-5.167999744	22.60099792	-0.3095416725	-4.656701088	7.888133526	1.0
25	-91.08300018	-5.167999744	22.60099792	-0.3169849217	-4.661944866	7.955088139	1.0
26	-91.08300018	-5.167999744	22.60099792	-0.3174380362	-4.654652119	7.947453022	1.0
[RightHandIndex2]
24	-36.76399994	0	0	-0.6247860789	-2.763857365	20.50259972	1.0
25	-36.76399994	0	0	-0.6275455952	-2.768958569	20.55958557	1.0
26	-36.76399994	0	0	-0.6285621524	-2.770830631	20.58062172	1.0
[RightHandIndex3]
24	-28.83100128	0	0	-0.2368163466	-0.1506021321	13.77428341	1.0
25	-28.83100128	0	0	-0.2381783128	-0.1561757177	13.83113956	1.0
26	-28.83100128	0	0	-0.2386823446	-0.1582128853	13.85214996	1.0
[RightHandIndex4]
24	-23.92700005	0	0	0	0	0	1.0
25	-23.92700005	0	0	0	0	0	1.0
26	-23.92700005	0	0	0	0	0	1.0
[RightHandThumb1]
24	-24.64799881	-15.72700024	26.82600021	18.1396389	4.350355148	-9.870349884	1.0
25	-24.64799881	-15.72700024	26.82600021	17.97882652	4.140340328	-10.15337467	1.0
26	-24.64799881	-15.72700024	26.82600021	17.95522881	4.01473999	-10.25772858	1.0
[RightHandThumb2]
24	-32.29800034	-18.64699936	18.64699936	-0.7973268628	-32.80862808	2.912159443	1.0
25	-32.29800034	-18.64699936	18.64699936	-0.6086909771	-32.86798859	2.941518307	1.0
26	-32.29800034	-18.64699936	18.64699936	-0.5255885124	-32.86010361	2.93291831	1.0
[RightHandThumb3]
24	-26.52600098	-15.31399918	15.31399918	1.847418785	-8.401659966	0.8131587505	1.0
25	-26.52600098	-15.31399918	15.31399918	1.851660371	-8.415685654	0.816958487	1.0
26	-26.52600098	-15.31399918	15.31399918	1.854435802	-8.424880028	0.819444716	1.0
[RightHandThumb4]
24	-19.54599953	-11.28499985	11.28499985	0	0	0	1.0
25	-19.54599953	-11.28499985	11.28499985	0	0	0	1.0
26	-19.54599953	-11.28499985	11.28499985	0	0	0	1.0
[LeftUpLeg]
24	82.07800293	-67.51699829	-15.99599934	-14.36805916	18.50442314	7.817522049	1.0
25	82.07800293	-67.51699829	-15.99599934	-14.58957767	16.6397171	8.94918251	1.0
26	82.07800293	-67.51699829	-15.99599934	-14.9363203	15.9857645	10.03112984	1.0
[LeftLeg]
24	0	-443.7049866	2.845999956	27.47468948	7.641573429	6.554956436	1.0
25	0	-443.7049866	2.845999956	26.96211815	7.921879292	6.636108398	1.0
26	0	-443.7049866	2.845999956	26.16651154	8.001866341	6.515052795	1.0
[LeftFoot]
24	0	-444.2789917	-29.8219986	-10.64613438	14.79280853	-9.066034317	1.0
25	0	-444.2789917	-29.8219986	-9.319655418	13.11810493	-9.450346947	1.0
26	0	-444.2789917	-29.8219986	-7.654376984	10.59843922	-9.494497299	1.0
[LeftToeBase]
24	0	-87.28699493	107.1060028	-0.432839483	-2.267971831e-05	2.105588919e-06	1.0
25	0	-87.28699493	107.1060028	-0.4328451455	-6.140576716e-06	9.675638921e-07	1.0
26	0	-87.28699493	107.1060028	-0.4328418672	-1.485672328e-06	8.447419191e-07	1.0
[RightUpLeg]
24	-82.07800293	-67.51699829	-15.99599934	-6.392991066	-1.832224011	6.444627285	1.0
25	-82.07800293	-67.51699829	-15.99599934	-4.846529484	-1.540716887	7.353171825	1.0
26	-82.07800293	-67.51699829	-15.99599934	-3.655581474	-1.859791517	8.361474037	1.0
[RightLeg]
24	0	-443.7049866	2.861999989	19.5976162	-2.046855211	1.604530454	1.0
25	0	-443.7049866	2.861999989	17.74382019	0.3964625895	2.748055935	1.0
26	0	-443.7049866	2.861999989	15.91624641	0.6826642156	2.867454529	1.0
[RightFoot]
24	0	-444.2770081	-29.83799934	-11.13834953	-14.83397961	0.2405254841	1.0
25	0	-444.2770081	-29.83799934	-11.28433704	-12.62438965	-2.141056776	1.0
26	0	-444.2770081	-29.83799934	-11.1112299	-9.136632919	-4.120414734	1.0
[RightToeBase]
24	0	-87.28699493	107.1060028	-7.2121768	2.657332516e-06	6.68239295e-07	1.0
25	0	-87.28699493	107.1060028	-5.421858788	1.974524093e-05	-1.192906211e-06	1.0
26	0	-87.28699493	107.1060028	-3.544098854	-5.269443136e-06	-7.544239224e-07	1.0
[EndOfFile]
